<?xml version="1.0" encoding="utf-8"?>
<!-- Generator: Adobe Illustrator 16.0.0, SVG Export Plug-In . SVG Version: 6.00 Build 0)  -->
<!DOCTYPE svg PUBLIC "-//W3C//DTD SVG 1.1//EN" "http://www.w3.org/Graphics/SVG/1.1/DTD/svg11.dtd">
<svg version="1.1" id="Layer_1" xmlns="http://www.w3.org/2000/svg" xmlns:xlink="http://www.w3.org/1999/xlink" x="0px" y="0px" viewBox="0 0 1097.26 553.77" enable-background="new 0 0 1097.26 553.77"
	 xml:space="preserve">
<g>
	<path fill="#FFFFFF" d="M246.99,210.53c0-10.67,5.21-16.83,14.7-16.83c6.64,0,14.46,4.27,15.65,18.96l27.97-3.08
		c-2.61-24.18-16.83-41.48-40.77-41.48c-28.92,0-45.51,15.41-45.51,42.67c0,49.07,59.73,58.07,59.73,91.97
		c0,10.19-6.87,15.64-17.07,15.64c-9.48,0-16.35-8.53-17.54-25.84l-27.97,4.03c1.19,25.6,16.83,47.41,44.09,47.41
		c27.5,0,46.46-15.64,46.46-43.85C306.72,253.67,246.99,239.69,246.99,210.53z"/>
	<path fill="#FFFFFF" d="M138.67,170.22l-31.53,171h28.44l5.21-38h32.24l5.21,38h28.44l-31.52-171H138.67z M145.06,278.22l11.62-74
		h0.47l11.61,74H145.06z"/>
	<path fill="#FFFFFF" d="M1055.76,168.1c-29.39,0-41.5,14.7-41.5,46.93v82.01c0,32.24,12.11,46.93,41.5,46.93
		c29.39,0,41.5-14.7,41.5-46.93v-82.01C1097.26,182.8,1085.15,168.1,1055.76,168.1z M1069.26,304.4c0,11.14-4.73,16.36-13.5,16.36
		c-8.77,0-13.5-5.22-13.5-16.36v-96.71c0-11.14,4.73-16.36,13.5-16.36c8.77,0,13.5,5.21,13.5,16.36V304.4z"/>
	<path fill="#FFFFFF" d="M44.97,168.1c-30.81,0-44.71,19.67-44.71,43.85v88.18c0,24.18,13.9,43.85,44.71,43.85
		c29.39,0,43.29-19.67,43.29-43.85v-19.91h-29v20.86c0,11.14-3.62,17.3-14.29,17.3c-11.85,0-15.71-6.16-15.71-18.96v-86.75
		c0-12.8,3.86-18.96,15.71-18.96c7.58,0,14.29,6.17,14.29,20.62v12.9h29v-12.19C88.26,189.44,74.36,168.1,44.97,168.1z"/>
	<path fill="#FFFFFF" d="M352.23,210.53c0-10.67,5.22-16.83,14.7-16.83c6.64,0,14.46,4.27,15.64,18.96l27.97-3.08
		c-2.61-24.18-16.83-41.48-40.77-41.48c-28.92,0-45.51,15.41-45.51,42.67c0,49.07,59.73,58.07,59.73,91.97
		c0,10.19-6.87,15.64-17.07,15.64c-9.48,0-16.36-8.53-17.54-25.84l-27.97,4.03c1.19,25.6,16.83,47.41,44.09,47.41
		c27.5,0,46.46-15.64,46.46-43.85C411.96,253.67,352.23,239.69,352.23,210.53z"/>
	<path fill="#FFFFFF" d="M955.15,168.45c-1.72-0.22-3.5-0.34-5.35-0.34c-12.48,0-22.3,3.95-29.1,10.68
		c-0.03-0.2-0.07-0.39-0.11-0.57c-0.29-1.54-0.68-2.46-0.05-3.97c1.84-4.27,2.12-6.91,1.74-11.62c-0.65-8.2-1.09-16.23-2.85-24.29
		c-1.83-8.38-4.32-16.59-6.32-24.93l-0.24-2.06c3.04,4.86,6.37,9.62,9.17,14.64c2.56,4.6,4.04,9.76,4.53,15
		c0.49,5.02-0.5,10.14,0.15,15.12c3.26-3.5,2.07-10.65,2.13-15.03c-0.03,1.51,1.36,3.85,1.86,5.36c0.75,2.12,1.5,4.29,2.59,6.25
		c1,1.81,2.33,3.42,2.81,5.47c-0.45-4.85-0.87-9.78-1.78-14.58c-1.01-5.26-3.72-9.83-5.52-14.82c-3.01-8.41-6.33-16.9-8.97-25.42
		c0.7,2.23,2.74,4.62,3.94,6.66c2.22,3.76,4.2,7.63,6.35,11.41c1.37,2.38,4.07,5.24,4.36,8.04c0.58-3.43-0.49-6.77-1.99-9.81
		c-1.15-2.34-2.8-6.33-4.75-8.04c4.79,4.15,7.72,6.96,9.28,13.32c1.66,6.92,1.97,13.93,3.23,20.91c1.53-2.73,4.03-5.23,4.67-8.36
		c0.24-1.23,0.55-10.63-1.12-11.14c9.26,2.82,18.71-0.52,23.7-8.97c1.35-2.27,2.92-4.44,3.79-6.94c1.08-2.94,1.37-6.06,2-9.08
		c-0.53,2.24-2.04,4.06-3.02,6.11c-3.4,7.07-10.75,19.2-20.31,16.13c-6.89-2.21-11.71-7.37-15.13-13.6
		c-2.75-4.98-5.23-9.9-8.67-14.49c-3.25-4.4-6.81-8.64-9.42-13.48c-3.1-5.77-4.8-12.23-8.55-17.65c-3.38-4.89-8.11-9.06-12.22-13.03
		c-4.3-4.13-5.44-10.21-8.6-15.11c-3.41-5.29-8.42-9.56-13.5-13.19c-5.03-3.58-10.04-7.86-15.44-11.01
		c-6.85-3.97-13.44-4.93-21.22-5.62c-5.69-0.5-11.39-1.74-16.87-3.44c-13.86-4.25-28.71-3.13-42.91-1.57
		c-4.2,0.48-8.6,0.6-12.71,1.54c-8.92,2.07-18.02,5.79-25.66,10.87c-7.41,4.9-12.78,12.45-19.35,18.33
		c-3.83,3.45-7.87,6.71-11.38,10.51c-2.78,3.01-5.17,6.31-7.28,9.79c-7.6,12.6-11.71,27.26-16.96,40.93
		c-1.97,5.21-4.58,10.51-6.13,15.85c-1.96,6.71-3.53,13.93-6.8,20.26c-2.87,5.64-7.23,8.83-11.85,12.88
		c-2.49,2.18-4.96,4.36-7.44,6.51c-3.77,3.32-8.54,6.18-12.71,9.03c-2.73,1.86-5.38,3.77-8.35,5.19c-4.01,1.94-8.13,3.07-12.53,3.64
		c-7.38,0.96-14.31,0.83-21.74,0.01c-2.73-0.3-6.65-0.19-6.65-0.19c4.06,2.25,7.18,3.65,11.84,4.07
		c10.19,0.95,19.51,2.13,29.21-2.11c5.08-2.2,10.55-3.25,15.56-5.56c3.09-1.4,6.1-3.02,9.15-4.54c-3.11,4.59-5.59,9.67-9.74,13.45
		c-4.2,3.88-9.43,6.47-14.65,8.67c-4.54,1.93-9.73,4.87-14.45,6c-0.03,0.03-11.75,2.8-11.75,2.8l-13.57,3.62
		c-3.92,1.05-8.26,1.39-12.26,1.74v-24.47h-79v102v2v67h9.11c-0.26,1-0.43,0.59-0.49,0.7c0.1-0.19,0.4,0.3,0.76-0.7h72.63v-25h-44.5
		c3.69-4,7.48-6.72,11.5-9.73c3.79-2.82,7.9-5.25,11.53-8.33c3.75-3.22,7.4-6.63,11.05-10c5.87-5.4,12.01-10.54,18.31-15.45
		c6.55-5.07,13.18-9.56,20.17-13.98c3.92-2.73,7.81-5.44,11.74-8.17c5.13-3.58,9.49-8.06,14.2-12.08
		c4.88-4.21,9.94-8.17,14.85-12.33c3.97-3.34,7.61-7.01,11.21-10.76c1.57-1.62,3.11-3.24,4.67-4.87c0.47-0.52,2.77-2.24,2.85-3.01
		c-1.91,19.39-6.06,37.66-12.18,56.1c-2.48,7.41-4.64,14.91-6.73,22.45c-1.22,4.45-2.18,8.99-3.42,13.45
		c-4.5,16.13-12.46,31.61-19.36,46.82c-1.56,3.47-3.72,6.76-5.55,10.12c-2.1,3.88-3.81,8.02-6.14,11.82
		c-3.41,5.54-8.14,10.11-13.63,13.56c-5.17,3.26-11.83,6.76-17.85,7.96c4.08-0.81,8.12-1.93,12.24-2.61
		c-8.06,4.92-16.64,8.99-24.76,13.8c4.09-1.09,8.2-2.19,12.17-3.68c12.57-4.81,23.14-13.37,31.61-23.75
		c4.36-5.33,8.33-11.03,11.68-17.07c2.89-5.25,4.64-11.05,7.13-16.5c2.54-5.54,5.39-10.99,7.64-16.64
		c2.26-5.59,2.73-11.78,4.27-17.5c2.34-8.85,5.48-17.44,8.51-26.05c3.32-9.45,6.76-18.81,9.86-28.35l4.97-15.02
		c0,0,1.21,8.31,0.82,10.16c-1.47,6.78-3.51,13.78-5.49,20.49c-1.53,5.25-3.49,9.95-4.5,15.3c-0.87,4.62-1.84,9.19-3.13,13.72
		c-2.89,10.11-6.72,20-10.07,29.96c-1.12,3.34-3.9,6.39-5.72,9.39c-2.15,3.55-4.12,7.2-5.56,11.13c-2.48,6.68-4.08,13.71-6.83,20.29
		c-2.72,6.48-6.28,12.57-8.9,19.08c-2.77,6.85-3.44,13.93-7.04,20.53c-7.02,12.93-13.42,25.72-21.81,37.83
		c-2.12,3.01-4.24,6.03-6.29,9.07c-1.06,1.57-2.91,3.53-3.43,5.4c-0.43,1.56-9.84,14.65-13.2,17.11
		c-12.73,9.49-24.28,20.46-37.13,29.76c2.44-1.77,7.19-3.19,10.2-4.59c5.68-2.72,11.56-5.02,16.87-8.39
		c3.62-2.3,7.03-4.94,10.48-7.45c-6.75,9.08-13.77,17.91-19.23,27.84c-2.22,3.99-5.85,8.28-6.59,12.91
		c0.62,0.11,1.72-0.01,2.36-0.37c2.3-1.35,3.62-4.58,5.04-6.76c1.97-2.99,4.11-5.85,6.33-8.62c-3.83,10.97-10.35,20.91-17.15,30.27
		c-3.15,4.3-6,9.36-9.65,13.3c6.86-7.38,13.94-14.59,20.68-22.1c5.57-6.21,10.33-13.1,15.09-19.95c3.76-5.36,8.53-10.04,13.01-14.81
		c3.57-3.79,6.88-7.56,10.86-10.92c12.12-10.33,23.21-21.6,34.54-32.8c4.22-4.21,8.46-8.34,12.58-12.65
		c5.26-5.5,10.44-11.21,16.19-16.26c4.17-3.68,8.65-7.09,12.01-11.58c5.53-7.34,11.3-15.43,15.47-23.64
		c-2.22,4.4-4.48,8.8-6.67,13.27c-2.65,5.38-5.27,10.79-8.22,16.04c-2.04,3.72-4.68,7.02-7.42,10.21
		c-5.11,5.98-10.73,11.49-16.48,16.85c-2.86,2.63-5.76,5.23-8.65,7.85c-2.62,2.38-5.46,5.97-8.49,7.71
		c15.25-8.7,30.79-20.68,41.52-34.67c9.05-11.84,14.72-26.03,22.41-38.73l9.76-12.55l-4.25,10.73c-2,4.94-4.03,9.86-6.1,14.77
		c-3.13,7.52-5.35,15.53-9.58,22.53c-4.42,7.35-9.26,15.71-15.42,21.74c-3.42,3.34-7.34,6.15-11,9.18
		c-5.71,4.76-11.2,9.11-17.9,12.49c-3.21,1.6-6.49,3.03-9.75,4.54c-2.75,1.27-6.5,4.24-9.4,4.76c13.68-2.48,25.44-9.34,36.37-17.64
		c3.39-2.58,6.69-5.35,9.98-8.06c7.95-6.62,16.11-15.12,21.91-23.69c6.73-9.91,9.94-22.87,14.06-34.03
		c0.02-0.06,5.57-15.13,5.57-15.13l8.39-19.61c0.99-2.41,1.96-4.83,2.97-7.25c5.8-14.13,10.63-28.97,13.4-44.02
		c2.93-16.02,3.98-31.52,4.06-47.81c0.03-5.27,0.55-10.55-1.88-15.43c-2.13-4.27-6.09-7.52-8.07-11.81c0-0.02-3.16-6.89-3.16-6.89
		c-3.6-10.55-6.61-22.96-6.18-34.18c0.38-9.85,0.77-19.68,1.18-29.52c0.17-4.05,3.64-7.33,6.03-10.34
		c5.53-7.01,11.72-13.69,19.73-17.95c4.07-2.15,8-4.48,11.93-6.85c4.55-2.79,9.13-5.48,13.69-8.19c8.1-4.78,16.24-9.53,24.17-14.62
		c5.61-3.55,10.61-7.99,16.12-11.71c7.82-5.34,16.5-10.82,25.15-14.7c8.01-3.59,15.24-3.27,23.81-2.96
		c-1.91,1.82-3.93,3.38-6.26,4.65c-2.31,1.24-5.52,3.32-8.09,3.83c5.77-1.18,11.32-2.86,16.59-5.49c0.58-0.26,5.1-1.9,5.12-1.99
		c-0.29,4.69-6.26,7.46-8.68,10.99c3.57-0.69,5.91-4.02,9.22-5.33c1.24-0.51,6.32-2.29,7.41-1.13c1.6,1.65-4.57,3.72-4.23,5.58
		c0.47,2.52,5.38,2.64,6.48,5.36c1.45,3.64-0.27,8.03,0.09,11.84c0.39,4.12,1.75,8.06,2.21,12.18c0.87,7.5,1.57,15.02,2.32,22.54
		c0.71,7.28,1.96,14.61,2.18,21.92c0.15,5.13-0.99,10.28-1.64,15.33c-0.54,4.44-1.3,8.84-2.2,13.21
		c-2.89,14.06-5.54,29.52-12.04,42.44c-2.08,4.07-4.67,7.75-7.66,11.23c-1.6,1.87-3.32,3.68-5.04,5.47
		c-0.88,0.93-4.48,3.72-4.54,4.78c-0.45,5.45-0.97,10.88-1.72,16.3c-0.87,6.49-2.25,11.94-4.47,18.06
		c-3.52,9.66-6.82,19.7-12.54,28.34c-6.26,9.47-12.42,19.02-18.96,28.31c-6.37,9-13.04,17.76-19.62,26.62
		c-2.97,3.98-5.86,8.02-8.79,12.04c-3.03,4.11-5.72,8.45-8.23,12.89c-2.25,3.94-3.76,8.28-6.14,12.14
		c-2.66,4.37-7.38,7.25-11.52,10.06c-4.89,3.31-10.04,6.21-15.21,9.04c0,0-25.85,14.31-26.67,15.31c-2.12,2.66-6.98,4.32-9.9,5.93
		c3.51-1.3,7.05-2.54,10.56-3.82c5.68-2.03,10.86-5.36,16.19-8.18c4.06-2.2,8.23-4.16,12.36-6.11c2.17-1.03,7.59-2.57,9.09-4.42
		c-0.02,0.03-5.56,6.96-5.56,6.96c-3.44,5.21-6.62,10.79-10.48,15.71c-3,3.85-6.13,7.59-9.31,11.36
		c-3.74,4.45-7.24,8.42-11.72,12.08c-2.8,2.28-5.58,4.58-8.38,6.85l-11.26,7.29l14.49-7.92c2.81-2.13,5.58-4.25,8.37-6.37
		c-2.18,3.04-4.29,6.07-6.52,9.08c-4.33,5.8-10.77,10.04-17.11,13.38c-4.11,2.19-8.83,4.89-13.37,6.06c4.73-1.17,9.4-2.46,14.1-3.65
		c-5.72,3.52-12.14,7.15-17.29,11.42c6.21-1.86,12.32-4.11,18.48-6.15c-2.77,2.67-5.53,5.36-8.23,8.09
		c-3.13,3.13-6.31,7.77-9.98,10.22c0.95-0.63,5.75-2.95,5.96-3.39c-0.38,0.75-6.56,6.94-9.18,9.34c4.54-2.85,9.15-5.2,12.94-9.04
		c2.13-2.14,4.49-4.05,6.79-5.98c-0.95,1.46-3.58,7.21-5.17,7.81c3.61-1.38,6.92-3.23,10-5.56c5.7-4.31,10.66-9.62,15.97-14.38
		c6.26-5.59,12.61-11.04,18.52-16.97c5.96-5.96,12.49-11.64,18.97-17.08c3.49-2.94,7.2-5.61,11.02-8.14
		c14-9.24,28.31-17.42,40.51-29.15c7.48-7.18,11.92-15.58,17.64-24.01c6.04-8.89,13.12-16.53,17.63-26.48l3.89-8.57
		c0.78-1.75,4.56-2.97,6.11-3.97c5.17-3.35,7.3-8.75,9.68-14.19c2.48-5.66,6.26-10.05,10.13-14.87c-0.59,0.73-0.26,4.8-0.65,6.08
		c-0.49,1.63-1.19,3.18-1.92,4.69c-1.65,3.26-3.54,6.6-6.43,8.94c3.04-2.47,6.15-4.32,9.08-6.94c3.7-3.29,8.73-5.74,11.48-9.97
		c1.89-2.93,3.75-5.86,5.81-8.66c2.01-2.75,4.28-5.66,4.71-9.15c1.07-8.89-0.13-18.62-0.5-27.6c-0.42-9.79-0.96-19.61-0.28-29.38
		l2.27,6.69c1.12,4.52,2.26,9.12,3.06,13.76c1.3,7.63,1.5,15.47,3.8,22.91c1.48,4.78,2.17,10.2,5.14,14.36
		c1.52,2.06,3.04,4.16,4.56,6.25c-2.66-3.68-3.04-8.22-3.97-12.51c-1.3-5.8-3-11.52-4.17-17.35l-1.6-11.9l-1.96-14.86
		c0.28,1.11,0.54,2.25,0.8,3.39c2.27,9.78,3.86,20.1,7.29,29.56c1.05,2.89,1.89,6.01,3.24,8.82c0.64,1.33,1.31,2.64,1.99,3.92
		c2.92,16.86,12.46,25.95,27.02,28.81c0.28,0.2,0.56,0.39,0.85,0.58c-0.18-0.17-0.36-0.35-0.56-0.52c3.36,0.64,6.99,0.95,10.86,0.95
		c29.16,0,42.67-16.12,42.67-50.25c0-23.23-3.79-33.42-21.1-42.43c15.17-8.3,18.49-19.44,18.49-39.35c0-20.7-10.59-40.02-31.6-43.34
		L955.15,168.45z M529.26,288.18c2-0.07,2.77-0.15,4.11-0.17c-1.36,0.77-2.11,1.51-4.11,2.29V288.18z M532.18,285.67
		c-0.92,0.3-1.92,0.55-2.92,0.78V274.3c3-0.45,5.48-1,8.17-1.49c8.91-1.59,17.88-3.38,26.8-4.77c-2.02,0.32-4.54,2.16-6.44,3.07
		c-3.13,1.46-6.38,2.81-9.33,4.59C542.97,279,538.39,283.63,532.18,285.67z M529.26,269.48v-3.26h22.81
		C544.72,267.22,537.26,268.43,529.26,269.48z M529.26,205.35c1,0.27,0.82,0.54,1.18,0.8c6.37,4.74,13.48,8.36,20.52,11.94
		c3.5,1.78,7.01,3.52,10.51,5.36c3.19,1.7,6.84,4.33,10.62,4.21c-3.13,0.75-6.26,1.46-9.39,2.2c-5.5,1.27-11.07,2.5-16.58,3.59
		c-5.65,1.12-10.85,2.36-16.85,3.75V205.35z M569.54,282.53c-2.35,2.39-4.7,4.73-7.09,7.06c-3.57,3.46-7.81,5.9-11.59,9.09
		c-4.5,3.82-8.61,8.29-13.37,11.81c-2.54,1.89-5.23,3.37-8.23,4.78v-7.58c10-5.5,20.42-9.75,28.79-17.13
		c4.24-3.74,7.93-8.11,12.33-11.73c3-2.46,6.05-4.89,9.06-7.32L569.54,282.53z M569.95,273.37c-5.66,4.49-11.07,9.21-16.84,13.58
		c-4.5,3.43-9,7.12-13.75,10.18c-3.29,2.1-6.1,4.17-10.1,6.17v-9.37c3-1.61,4.98-3.23,7.35-4.94c3.24-2.33,6.45-4.73,9.73-7.01
		c5.12-3.5,10.22-6.87,15.7-9.84c3.82-2.08,6.34-5.84,10.03-8.1c3.66-2.28,8.32-1.37,11.91-3.59
		C580.21,265.66,574.92,269.42,569.95,273.37z M626.51,212.46c-1.77,2.45-3.99,4.31-6.14,6.46c-7.66,7.67-14.95,15.18-23.53,21.83
		c-4.56,3.51-8.82,7.38-13.28,10.99c-2.21,1.8-4.47,3.54-6.82,5.14c-1.29,0.89-3.73,2.95-5.29,3.12c-1.36,0.14-2.2,0.44-4.2,0.82
		v-20.6h-38v-1.93c3,0.02,5.02,0.02,7.47,0c13.28-0.13,26.19-4.39,39.22-6.22c-2.41,1.64-4.82,3.33-7.24,5
		c2.78-0.55,5.73-0.69,8.18-2.12c7.98-4.53,15.65-9.62,23.39-14.57c2.64-1.69,5.3-3.37,7.93-5.06c1.61-1,3.65-2.81,5.41-3.4
		c0.11-0.05,8.15-2.7,8.15-2.7s7.17-1.75,8.9-2.79C629.05,207.4,627.63,210.91,626.51,212.46z M627.35,194.03
		c-4.73,3.42-9.5,6.8-14.23,10.2c-3.02,2.16-5.93,4.42-8.87,6.67c-1.92,1.44-3.49,3.33-5.53,4.64c-2.16,1.36-4.62,2.24-6.95,3.29
		c-2.9,1.29-5.9,2.31-9,2.86c-11.41,2.07-22.78-2.31-32.73-7.46c-7.04-3.62-13.79-7.68-20.79-11.76v-6.24h30.97
		c1.14,0,2.29,0.3,3.43,0.48c-2.4,1.01-4.73,2.01-7.24,2.75c-1.11,0.34-5.4,0.76-6.02,1.85c-1.14,1.9,6.84,1.73,7.55,1.67
		c3.46-0.3,6.86-1.14,10.29-1.67c5.66-0.89,11.28-1.78,16.91-2.76c16.76-2.89,33.39-6.52,50-10.12
		C632.72,188.95,629.33,192.61,627.35,194.03z M898.5,79.28c-0.85-2.27-1.7-6.42-3.33-8.22c0.09,0.13,2.74,3.02,2.74,3.02
		s4.47,5.22,5.22,6.36c3.19,4.97,4.57,10.86,7.2,16.12c1.68,3.31,3.34,6.65,5.03,9.98c-4.62-3.76-9.07-7.71-11.78-12.89
		c-2.21-4.28-3.13-8.88-4.7-13.33C898.76,79.96,898.63,79.62,898.5,79.28z M962.26,300.61c0,14.22-5.32,20.15-13.86,20.15
		c-9.01,0-13.14-6.4-13.14-17.07v-11.46h-22.6c-1.02-5-2-9.25-2.83-13.86c-3.07-17.11-5.47-34.35-8.09-51.56
		c-0.24-1.62-1.23-4.57-0.92-6.14c0.55-3.08,0.81-6.51,2.27-9.32c1.62-3.08,0.2-5.41,0.59-8.53c0.03-0.18,0.8-6.4,0.8-6.4l1.2,10.1
		c1.1,2.53,2.6,6.19,3.6,8.57v1.15h1.29c0.14,0,0.28,0.14,0.43,0.25c1.79,1.37,3.56,3.06,5.75,3.77c0.71,0.24,5.95,0.04,6.03,0.22
		c-0.69-1.43-1.21-3.24-1.63-4.24h15.13v-7.35c0-13.51,4.99-17.54,13.29-17.54c8.77,0,11.75,6.64,11.75,22.75
		c0,20.39-6.04,26.07-24.04,26.07v23.23c18,0,25,5.69,25,24.18V300.61z"/>
	<rect x="438.26" y="170.22" fill="#FFFFFF" width="29" height="171"/>
	<path fill="#FFFFFF" d="M584.71,389.88c-3.8,0.84-6.72,1.53-5.59,1.38C580.1,391.17,582.25,390.6,584.71,389.88z"/>
	<path fill="#FFFFFF" d="M672.26,524.56c-0.13,0.21,0.36-0.18,1.12-0.86C672.76,524.07,672.34,524.38,672.26,524.56z"/>
</g>
</svg>
