<?xml version="1.0" encoding="utf-8"?>
<!-- Generator: Adobe Illustrator 16.0.0, SVG Export Plug-In . SVG Version: 6.00 Build 0)  -->
<!DOCTYPE svg PUBLIC "-//W3C//DTD SVG 1.1//EN" "http://www.w3.org/Graphics/SVG/1.1/DTD/svg11.dtd">
<svg version="1.1" id="Layer_1" xmlns="http://www.w3.org/2000/svg" xmlns:xlink="http://www.w3.org/1999/xlink" x="0px" y="0px" viewBox="0 0 1097.255 553.771" enable-background="new 0 0 1097.255 553.771"
	 xml:space="preserve">
<g>
	<path d="M246.987,210.534c0-10.667,5.214-16.832,14.696-16.832c6.638,0,14.46,4.268,15.645,18.965l27.97-3.083
		c-2.607-24.176-16.829-41.48-40.771-41.48c-28.918,0-45.511,15.408-45.511,42.667c0,49.066,59.734,58.074,59.734,91.969
		c0,10.193-6.875,15.645-17.067,15.645c-9.481,0-16.355-8.532-17.54-25.837l-27.971,4.029c1.186,25.601,16.83,47.408,44.089,47.408
		c27.496,0,46.458-15.645,46.458-43.852C306.719,253.673,246.987,239.688,246.987,210.534z"/>
	<path d="M138.666,170.223l-31.526,171h28.444l5.215-38h32.237l5.214,38h28.444l-31.525-171H138.666z M145.065,278.223l11.616-74
		h0.474l11.614,74H145.065z"/>
	<path d="M1055.755,168.103c-29.394,0-41.5,14.696-41.5,46.934v82.014c0,32.237,12.106,46.934,41.5,46.934
		c29.393,0,41.5-14.696,41.5-46.934v-82.014C1097.255,182.799,1085.148,168.103,1055.755,168.103z M1069.255,304.399
		c0,11.14-4.73,16.355-13.5,16.355c-8.771,0-13.5-5.216-13.5-16.355v-96.71c0-11.143,4.729-16.356,13.5-16.356
		c8.77,0,13.5,5.214,13.5,16.356V304.399z"/>
	<path d="M44.967,168.103c-30.814,0-44.711,19.673-44.711,43.852v88.178c0,24.178,13.897,43.852,44.711,43.852
		c29.392,0,43.289-19.674,43.289-43.852v-19.909h-29v20.857c0,11.14-3.622,17.303-14.289,17.303
		c-11.852,0-15.711-6.163-15.711-18.963v-86.754c0-12.8,3.859-18.965,15.711-18.965c7.584,0,14.289,6.165,14.289,20.624v12.898h29
		v-12.187C88.255,189.436,74.358,168.103,44.967,168.103z"/>
	<path d="M352.226,210.534c0-10.667,5.215-16.832,14.696-16.832c6.637,0,14.459,4.268,15.645,18.965l27.97-3.083
		c-2.607-24.176-16.83-41.48-40.77-41.48c-28.918,0-45.511,15.408-45.511,42.667c0,49.066,59.733,58.074,59.733,91.969
		c0,10.193-6.875,15.645-17.067,15.645c-9.481,0-16.355-8.532-17.541-25.837l-27.97,4.029c1.185,25.601,16.83,47.408,44.088,47.408
		c27.497,0,46.459-15.645,46.459-43.852C411.959,253.673,352.226,239.688,352.226,210.534z"/>
	<path d="M500.255,274.223v67h9.107c-0.259,1-0.433,0.586-0.491,0.704c0.102-0.194,0.398,0.296,0.757-0.704h72.626v-25h-44.5
		c3.695-4,7.482-6.725,11.498-9.727c3.79-2.818,7.898-5.25,11.533-8.333c3.748-3.219,7.399-6.627,11.051-10
		c5.868-5.403,12.011-10.542,18.313-15.453c6.552-5.074,13.179-9.559,20.168-13.979c3.921-2.727,7.81-5.444,11.737-8.166
		c5.126-3.578,9.487-8.062,14.197-12.076c4.875-4.209,9.943-8.165,14.849-12.333c3.969-3.342,7.612-7.01,11.207-10.758
		c1.572-1.619,3.112-3.242,4.669-4.871c0.473-0.518,2.771-2.238,2.853-3.008c-1.905,19.394-6.062,37.657-12.176,56.103
		c-2.478,7.414-4.645,14.908-6.731,22.45c-1.224,4.445-2.176,8.992-3.423,13.452c-4.498,16.126-12.461,31.61-19.355,46.82
		c-1.558,3.473-3.725,6.763-5.551,10.12c-2.103,3.881-3.813,8.021-6.145,11.819c-3.406,5.541-8.143,10.105-13.628,13.56
		c-5.165,3.26-11.833,6.756-17.847,7.963c4.083-0.809,8.125-1.933,12.241-2.614c-8.061,4.919-16.643,8.988-24.758,13.805
		c4.09-1.091,8.197-2.186,12.167-3.684c12.565-4.809,23.145-13.373,31.611-23.748c4.362-5.332,8.329-11.029,11.68-17.067
		c2.892-5.248,4.636-11.051,7.13-16.496c2.545-5.54,5.388-10.985,7.645-16.643c2.26-5.589,2.732-11.78,4.271-17.503
		c2.34-8.853,5.479-17.439,8.51-26.047c3.316-9.45,6.756-18.815,9.862-28.354l4.97-15.021c0,0,1.215,8.313,0.815,10.155
		c-1.468,6.777-3.514,13.785-5.493,20.492c-1.532,5.253-3.489,9.952-4.499,15.304c-0.873,4.618-1.841,9.188-3.129,13.721
		c-2.894,10.109-6.716,20.003-10.072,29.96c-1.117,3.344-3.896,6.39-5.723,9.39c-2.152,3.554-4.124,7.204-5.558,11.131
		c-2.478,6.684-4.076,13.711-6.83,20.287c-2.722,6.479-6.283,12.574-8.9,19.078c-2.771,6.853-3.438,13.926-7.041,20.528
		c-7.016,12.928-13.423,25.716-21.81,37.825c-2.119,3.013-4.237,6.031-6.29,9.069c-1.06,1.57-2.91,3.529-3.432,5.404
		c-0.432,1.558-9.837,14.652-13.195,17.114c-12.729,9.492-24.278,20.455-37.129,29.762c2.435-1.767,7.187-3.193,10.204-4.595
		c5.679-2.723,11.563-5.021,16.868-8.395c3.618-2.3,7.026-4.939,10.48-7.449c-6.746,9.08-13.772,17.912-19.232,27.838
		c-2.218,3.994-5.852,8.282-6.585,12.911c0.62,0.108,1.72-0.009,2.364-0.374c2.298-1.352,3.617-4.581,5.036-6.764
		c1.972-2.985,4.106-5.852,6.325-8.625c-3.831,10.971-10.351,20.911-17.148,30.267c-3.146,4.305-5.998,9.357-9.648,13.302
		c6.861-7.382,13.944-14.595,20.684-22.1c5.575-6.213,10.334-13.104,15.093-19.95c3.757-5.363,8.533-10.044,13.006-14.808
		c3.57-3.792,6.879-7.556,10.857-10.924c12.119-10.326,23.209-21.604,34.538-32.803c4.223-4.205,8.46-8.345,12.584-12.654
		c5.264-5.501,10.439-11.207,16.193-16.259c4.172-3.678,8.646-7.091,12.014-11.584c5.533-7.342,11.303-15.435,15.468-23.643
		c-2.225,4.401-4.482,8.803-6.666,13.268c-2.648,5.379-5.273,10.786-8.224,16.039c-2.045,3.719-4.679,7.016-7.425,10.212
		c-5.11,5.983-10.734,11.492-16.479,16.847c-2.86,2.626-5.762,5.232-8.646,7.854c-2.624,2.382-5.461,5.967-8.492,7.711
		c15.248-8.702,30.79-20.684,41.516-34.668c9.046-11.836,14.718-26.031,22.412-38.73l9.763-12.55l-4.254,10.733
		c-2.005,4.94-4.026,9.855-6.096,14.769c-3.13,7.522-5.354,15.532-9.585,22.533c-4.417,7.352-9.257,15.714-15.419,21.743
		c-3.415,3.342-7.342,6.154-11.003,9.179c-5.712,4.759-11.197,9.11-17.896,12.486c-3.211,1.597-6.488,3.03-9.748,4.545
		c-2.745,1.271-6.503,4.24-9.404,4.762c13.685-2.479,25.443-9.34,36.365-17.638c3.389-2.576,6.691-5.346,9.976-8.061
		c7.954-6.625,16.112-15.117,21.906-23.691c6.731-9.911,9.942-22.868,14.058-34.032c0.018-0.06,5.567-15.126,5.567-15.126
		l8.394-19.609c0.987-2.413,1.964-4.831,2.967-7.247c5.803-14.131,10.628-28.97,13.399-44.016
		c2.934-16.021,3.983-31.519,4.064-47.811c0.027-5.265,0.549-10.546-1.88-15.427c-2.129-4.275-6.089-7.519-8.069-11.81
		c0-0.025-3.163-6.891-3.163-6.891c-3.601-10.554-6.609-22.959-6.177-34.177c0.375-9.848,0.766-19.682,1.182-29.519
		c0.171-4.055,3.643-7.326,6.031-10.345c5.533-7.014,11.719-13.693,19.731-17.951c4.074-2.151,8.002-4.478,11.93-6.846
		c4.548-2.788,9.128-5.476,13.69-8.187c8.104-4.783,16.236-9.531,24.174-14.618c5.607-3.551,10.612-7.986,16.121-11.706
		c7.823-5.342,16.496-10.818,25.149-14.702c8.013-3.591,15.242-3.272,23.813-2.955c-1.905,1.825-3.928,3.378-6.265,4.654
		c-2.307,1.242-5.518,3.317-8.094,3.833c5.771-1.177,11.317-2.864,16.592-5.487c0.579-0.261,5.102-1.896,5.119-1.993
		c-0.295,4.69-6.261,7.462-8.682,10.991c3.571-0.693,5.911-4.022,9.219-5.335c1.24-0.514,6.316-2.293,7.408-1.133
		c1.599,1.65-4.572,3.717-4.229,5.579c0.471,2.523,5.379,2.645,6.479,5.36c1.45,3.637-0.27,8.03,0.091,11.84
		c0.391,4.12,1.75,8.058,2.215,12.175c0.865,7.502,1.574,15.016,2.316,22.535c0.714,7.283,1.961,14.605,2.182,21.916
		c0.147,5.129-0.993,10.28-1.636,15.33c-0.541,4.437-1.297,8.837-2.202,13.215c-2.892,14.055-5.54,29.519-12.037,42.437
		c-2.085,4.065-4.67,7.749-7.661,11.233c-1.604,1.872-3.324,3.684-5.035,5.474c-0.882,0.929-4.477,3.724-4.54,4.783
		c-0.449,5.448-0.97,10.875-1.72,16.3c-0.87,6.492-2.25,11.935-4.474,18.057c-3.516,9.664-6.822,19.698-12.545,28.337
		c-6.26,9.47-12.419,19.023-18.955,28.313c-6.366,8.995-13.041,17.765-19.624,26.617c-2.967,3.977-5.86,8.018-8.794,12.043
		c-3.025,4.11-5.722,8.453-8.231,12.895c-2.249,3.938-3.765,8.28-6.14,12.144c-2.655,4.368-7.384,7.251-11.521,10.057
		c-4.892,3.31-10.04,6.21-15.208,9.038c0,0-25.851,14.311-26.665,15.313c-2.12,2.657-6.977,4.318-9.903,5.934
		c3.514-1.297,7.051-2.543,10.563-3.815c5.682-2.029,10.862-5.355,16.191-8.181c4.061-2.201,8.226-4.157,12.358-6.113
		c2.166-1.027,7.595-2.567,9.093-4.417c-0.017,0.032-5.558,6.961-5.558,6.961c-3.44,5.215-6.618,10.788-10.481,15.713
		c-2.997,3.854-6.128,7.593-9.306,11.36c-3.741,4.448-7.238,8.418-11.721,12.076c-2.796,2.282-5.575,4.582-8.377,6.847
		l-11.264,7.285l14.489-7.922c2.806-2.133,5.584-4.255,8.37-6.371c-2.176,3.039-4.293,6.072-6.52,9.08
		c-4.326,5.801-10.772,10.037-17.105,13.38c-4.108,2.186-8.834,4.889-13.366,6.063c4.727-1.175,9.397-2.46,14.101-3.65
		c-5.723,3.521-12.145,7.154-17.294,11.425c6.208-1.857,12.321-4.106,18.483-6.146c-2.771,2.665-5.526,5.361-8.231,8.087
		c-3.129,3.128-6.309,7.773-9.976,10.219c0.945-0.635,5.745-2.95,5.957-3.391c-0.383,0.751-6.561,6.936-9.185,9.34
		c4.54-2.853,9.152-5.198,12.942-9.038c2.127-2.144,4.491-4.049,6.788-5.981c-0.945,1.458-3.577,7.212-5.167,7.814
		c3.61-1.384,6.919-3.227,10-5.559c5.696-4.312,10.659-9.616,15.966-14.375c6.26-5.592,12.607-11.036,18.517-16.97
		c5.964-5.955,12.494-11.637,18.966-17.078c3.485-2.944,7.202-5.609,11.017-8.136c14.001-9.243,28.312-17.425,40.506-29.15
		c7.48-7.18,11.916-15.584,17.637-24.012c6.044-8.891,13.118-16.526,17.628-26.477l3.889-8.565c0.78-1.746,4.561-2.968,6.109-3.97
		c5.168-3.352,7.301-8.747,9.684-14.19c2.484-5.664,6.265-10.049,10.128-14.873c-0.595,0.734-0.261,4.8-0.651,6.079
		c-0.489,1.629-1.189,3.181-1.915,4.688c-1.646,3.26-3.535,6.602-6.429,8.94c3.038-2.472,6.146-4.321,9.076-6.943
		c3.7-3.285,8.73-5.736,11.483-9.97c1.892-2.933,3.751-5.857,5.806-8.663c2.01-2.754,4.275-5.655,4.709-9.151
		c1.067-8.892-0.131-18.624-0.505-27.603c-0.415-9.794-0.964-19.609-0.276-29.384l2.266,6.69c1.124,4.523,2.256,9.125,3.063,13.758
		c1.304,7.628,1.501,15.472,3.799,22.906c1.482,4.775,2.167,10.203,5.141,14.358c1.519,2.062,3.041,4.155,4.557,6.252
		c-2.656-3.676-3.038-8.224-3.969-12.511c-1.297-5.8-3-11.521-4.165-17.351l-1.596-11.904l-1.956-14.863
		c0.277,1.107,0.537,2.252,0.798,3.389c2.266,9.784,3.861,20.103,7.285,29.564c1.052,2.894,1.892,6.013,3.235,8.818
		c0.639,1.333,1.306,2.636,1.988,3.924c2.915,16.863,12.462,25.951,27.018,28.81c0.281,0.196,0.564,0.388,0.846,0.584
		c-0.176-0.171-0.364-0.347-0.56-0.523c3.361,0.638,6.985,0.95,10.855,0.95c29.155,0,42.666-16.119,42.666-50.252
		c0-23.229-3.792-33.422-21.096-42.429c15.171-8.297,18.489-19.438,18.489-39.349c0-20.699-10.595-40.021-31.601-43.344
		c1.265-1.951,2.65-3.837,4.179-5.553c-1.786,1.81-3.59,3.597-5.388,5.389c-1.72-0.218-3.499-0.344-5.354-0.344
		c-12.479,0-22.303,3.951-29.103,10.684c-0.033-0.196-0.068-0.388-0.105-0.57c-0.292-1.54-0.683-2.465-0.048-3.969
		c1.841-4.268,2.119-6.91,1.744-11.618c-0.65-8.203-1.095-16.231-2.853-24.287c-1.826-8.379-4.318-16.594-6.324-24.935l-0.238-2.062
		c3.042,4.862,6.365,9.625,9.169,14.639c2.559,4.599,4.043,9.764,4.53,15c0.491,5.019-0.504,10.139,0.15,15.121
		c3.257-3.499,2.069-10.65,2.127-15.028c-0.033,1.509,1.359,3.853,1.864,5.363c0.751,2.119,1.498,4.286,2.592,6.25
		c0.995,1.81,2.33,3.415,2.812,5.465c-0.448-4.849-0.872-9.784-1.783-14.58c-1.012-5.261-3.718-9.833-5.518-14.82
		c-3.008-8.408-6.332-16.904-8.975-25.42c0.702,2.228,2.74,4.621,3.937,6.659c2.224,3.756,4.195,7.627,6.352,11.409
		c1.367,2.377,4.065,5.241,4.357,8.037c0.577-3.428-0.489-6.768-1.987-9.812c-1.15-2.34-2.798-6.333-4.754-8.035
		c4.788,4.151,7.721,6.956,9.277,13.316c1.662,6.916,1.972,13.929,3.227,20.912c1.531-2.73,4.032-5.232,4.669-8.365
		c0.244-1.227,0.547-10.631-1.116-11.137c9.26,2.819,18.711-0.519,23.701-8.973c1.352-2.265,2.917-4.442,3.795-6.935
		c1.077-2.942,1.371-6.064,2.005-9.079c-0.528,2.235-2.043,4.058-3.021,6.112c-3.398,7.066-10.75,19.195-20.31,16.133
		c-6.895-2.205-11.713-7.369-15.135-13.598c-2.747-4.985-5.232-9.902-8.669-14.488c-3.247-4.399-6.813-8.641-9.424-13.479
		c-3.104-5.766-4.8-12.228-8.547-17.653c-3.385-4.886-8.11-9.062-12.22-13.027c-4.302-4.134-5.442-10.21-8.599-15.108
		c-3.412-5.293-8.417-9.56-13.501-13.187c-5.03-3.585-10.041-7.855-15.437-11.007c-6.847-3.972-13.438-4.934-21.217-5.623
		c-5.694-0.496-11.393-1.739-16.867-3.438c-13.863-4.255-28.706-3.127-42.909-1.57c-4.204,0.477-8.598,0.603-12.708,1.541
		c-8.923,2.066-18.018,5.786-25.661,10.872c-7.41,4.898-12.78,12.452-19.349,18.333c-3.831,3.449-7.865,6.713-11.377,10.505
		c-2.779,3.008-5.167,6.309-7.277,9.793c-7.604,12.599-11.711,27.256-16.961,40.926c-1.971,5.213-4.58,10.505-6.128,15.852
		c-1.956,6.708-3.528,13.928-6.797,20.265c-2.87,5.644-7.229,8.831-11.85,12.881c-2.487,2.177-4.956,4.365-7.442,6.511
		c-3.772,3.316-8.541,6.182-12.713,9.026c-2.729,1.859-5.379,3.772-8.354,5.195c-4.009,1.94-8.134,3.074-12.534,3.644
		c-7.385,0.961-14.312,0.835-21.735,0.008c-2.731-0.298-6.651-0.191-6.651-0.191c4.061,2.25,7.181,3.655,11.844,4.07
		c10.186,0.951,19.509,2.128,29.207-2.11c5.079-2.197,10.547-3.251,15.559-5.563c3.089-1.402,6.104-3.023,9.152-4.536
		c-3.105,4.594-5.591,9.667-9.739,13.449c-4.197,3.883-9.429,6.466-14.646,8.666c-4.538,1.929-9.729,4.87-14.448,5.999
		c-0.026,0.028-11.753,2.8-11.753,2.8l-13.567,3.618c-3.918,1.05-8.258,1.387-12.258,1.737v-24.465h-79v102V274.223z
		 M529.255,288.175c2-0.073,2.77-0.149,4.106-0.175c-1.361,0.768-2.106,1.514-4.106,2.285V288.175z M532.176,285.669
		c-0.92,0.299-1.921,0.554-2.921,0.78v-12.153c3-0.451,5.48-0.998,8.169-1.493c8.908-1.59,17.875-3.383,26.798-4.771
		c-2.019,0.321-4.545,2.162-6.437,3.073c-3.13,1.458-6.381,2.807-9.332,4.587C542.968,278.997,538.386,283.625,532.176,285.669z
		 M529.255,269.483v-3.26h22.813C544.724,267.223,537.255,268.431,529.255,269.483z M529.255,205.354
		c1,0.266,0.823,0.544,1.177,0.804c6.373,4.739,13.482,8.357,20.522,11.935c3.498,1.777,7.013,3.521,10.507,5.363
		c3.194,1.704,6.839,4.331,10.62,4.213c-3.129,0.75-6.26,1.463-9.39,2.201c-5.501,1.271-11.075,2.501-16.583,3.594
		c-5.648,1.117-10.854,2.362-16.854,3.752V205.354z M569.541,282.526c-2.349,2.39-4.695,4.731-7.092,7.061
		c-3.57,3.456-7.807,5.901-11.59,9.09c-4.498,3.822-8.61,8.287-13.369,11.808c-2.545,1.891-5.234,3.368-8.234,4.775v-7.579
		c10-5.499,20.419-9.751,28.787-17.131c4.237-3.744,7.934-8.112,12.326-11.728c2.999-2.462,6.048-4.889,9.062-7.318L569.541,282.526
		z M569.946,273.367c-5.656,4.493-11.073,9.205-16.837,13.585c-4.499,3.426-9.002,7.118-13.753,10.185
		c-3.292,2.101-6.101,4.17-10.101,6.173v-9.366c3-1.613,4.981-3.229,7.354-4.939c3.244-2.326,6.449-4.733,9.735-7.013
		c5.117-3.5,10.221-6.865,15.697-9.839c3.822-2.075,6.342-5.84,10.025-8.102c3.658-2.278,8.319-1.368,11.906-3.594
		C580.207,265.656,574.918,269.42,569.946,273.367z M626.506,212.462c-1.769,2.445-3.993,4.311-6.137,6.463
		c-7.661,7.668-14.946,15.182-23.528,21.833c-4.563,3.513-8.818,7.376-13.277,10.986c-2.207,1.798-4.473,3.541-6.821,5.14
		c-1.288,0.891-3.732,2.945-5.288,3.12c-1.356,0.139-2.199,0.437-4.199,0.821v-20.601h-38v-1.932c3,0.016,5.017,0.023,7.468-0.003
		c13.284-0.129,26.189-4.393,39.22-6.218c-2.411,1.639-4.823,3.333-7.236,4.997c2.78-0.55,5.73-0.693,8.176-2.115
		c7.979-4.527,15.646-9.621,23.389-14.568c2.642-1.694,5.303-3.365,7.935-5.06c1.606-1.003,3.653-2.81,5.405-3.404
		c0.105-0.046,8.151-2.698,8.151-2.698s7.165-1.755,8.899-2.791C629.048,207.405,627.63,210.91,626.506,212.462z M627.354,194.026
		c-4.733,3.418-9.495,6.796-14.229,10.199c-3.017,2.156-5.926,4.423-8.868,6.671c-1.923,1.435-3.487,3.33-5.534,4.643
		c-2.16,1.36-4.62,2.241-6.95,3.288c-2.902,1.288-5.901,2.307-8.998,2.857c-11.411,2.07-22.775-2.307-32.734-7.458
		c-7.044-3.624-13.785-7.676-20.785-11.759v-6.244h30.974c1.144,0,2.293,0.298,3.427,0.479c-2.396,1.01-4.728,2.013-7.238,2.754
		c-1.107,0.341-5.396,0.763-6.023,1.847c-1.141,1.896,6.839,1.727,7.555,1.669c3.457-0.298,6.855-1.141,10.285-1.675
		c5.655-0.893,11.282-1.78,16.912-2.764c16.757-2.89,33.389-6.518,50-10.116C632.716,188.946,629.327,192.609,627.354,194.026z
		 M898.5,79.279c-0.848-2.274-1.695-6.42-3.326-8.225c0.089,0.13,2.74,3.016,2.74,3.016s4.472,5.223,5.223,6.36
		c3.193,4.967,4.572,10.864,7.196,16.117c1.68,3.314,3.342,6.651,5.025,9.983c-4.618-3.764-9.067-7.71-11.781-12.892
		c-2.211-4.284-3.13-8.88-4.703-13.33C898.759,79.958,898.63,79.62,898.5,79.279z M962.255,300.606
		c0,14.223-5.322,20.148-13.856,20.148c-9.007,0-13.144-6.399-13.144-17.067v-11.464H912.66c-1.022-5-1.995-9.25-2.833-13.864
		c-3.065-17.114-5.475-34.352-8.093-51.557c-0.235-1.621-1.232-4.566-0.922-6.14c0.554-3.085,0.81-6.509,2.266-9.324
		c1.615-3.085,0.197-5.413,0.588-8.526c0.032-0.179,0.797-6.404,0.797-6.404l1.195,10.1c1.096,2.532,2.598,6.194,3.598,8.566v1.148
		h1.294c0.141,0,0.283,0.138,0.434,0.254c1.795,1.369,3.562,3.065,5.747,3.77c0.709,0.238,5.949,0.044,6.03,0.22
		c-0.694-1.427-1.214-3.245-1.635-4.245h15.13v-7.35c0-13.511,4.991-17.541,13.287-17.541c8.771,0,11.752,6.637,11.752,22.755
		c0,20.386-6.039,26.075-24.039,26.075v23.229c18,0,25,5.689,25,24.178V300.606z"/>
	<rect x="438.255" y="170.223" width="29" height="171"/>
	<path d="M584.714,389.879c-3.798,0.842-6.716,1.533-5.592,1.384C580.102,391.167,582.252,390.599,584.714,389.879z"/>
	<path d="M672.26,524.563c-0.13,0.214,0.356-0.179,1.124-0.863C672.755,524.074,672.339,524.384,672.26,524.563z"/>
</g>
</svg>
